<svg xmlns="http://www.w3.org/2000/svg" viewBox="0 0 512 512" width="512" height="512">
  <rect width="512" height="512" fill="#9EDBB5" />
  <polygon points="256,15 497,256 256,497 15,256" fill="none" stroke="#000000" stroke-width="6" />
  <polygon points="256,25 487,256 256,487 25,256" fill="none" stroke="#000000" stroke-width="2" />
  <g transform="translate(256, 256) rotate(45) translate(-160, -160)">
    <rect x="0" y="0" width="40" height="40" fill="#9EDBB5" /><rect x="40" y="0" width="40" height="40" fill="#000000" /><rect x="80" y="0" width="40" height="40" fill="#9EDBB5" /><rect x="120" y="0" width="40" height="40" fill="#000000" /><rect x="160" y="0" width="40" height="40" fill="#9EDBB5" /><rect x="200" y="0" width="40" height="40" fill="#000000" /><rect x="240" y="0" width="40" height="40" fill="#9EDBB5" /><rect x="280" y="0" width="40" height="40" fill="#000000" />
    <rect x="0" y="40" width="40" height="40" fill="#000000" /><rect x="40" y="40" width="40" height="40" fill="#9EDBB5" /><rect x="80" y="40" width="40" height="40" fill="#000000" /><rect x="120" y="40" width="40" height="40" fill="#9EDBB5" /><rect x="160" y="40" width="40" height="40" fill="#000000" /><rect x="200" y="40" width="40" height="40" fill="#9EDBB5" /><rect x="240" y="40" width="40" height="40" fill="#000000" /><rect x="280" y="40" width="40" height="40" fill="#9EDBB5" />
    <rect x="0" y="80" width="40" height="40" fill="#9EDBB5" /><rect x="40" y="80" width="40" height="40" fill="#000000" /><rect x="80" y="80" width="40" height="40" fill="#9EDBB5" /><rect x="120" y="80" width="40" height="40" fill="#000000" /><rect x="160" y="80" width="40" height="40" fill="#9EDBB5" /><rect x="200" y="80" width="40" height="40" fill="#000000" /><rect x="240" y="80" width="40" height="40" fill="#9EDBB5" /><rect x="280" y="80" width="40" height="40" fill="#000000" />
    <rect x="0" y="120" width="40" height="40" fill="#000000" /><rect x="40" y="120" width="40" height="40" fill="#9EDBB5" /><rect x="80" y="120" width="40" height="40" fill="#000000" /><rect x="120" y="120" width="40" height="40" fill="#9EDBB5" /><rect x="160" y="120" width="40" height="40" fill="#000000" /><rect x="200" y="120" width="40" height="40" fill="#9EDBB5" /><rect x="240" y="120" width="40" height="40" fill="#000000" /><rect x="280" y="120" width="40" height="40" fill="#9EDBB5" />
    <rect x="0" y="160" width="40" height="40" fill="#9EDBB5" /><rect x="40" y="160" width="40" height="40" fill="#000000" /><rect x="80" y="160" width="40" height="40" fill="#9EDBB5" /><rect x="120" y="160" width="40" height="40" fill="#000000" /><rect x="160" y="160" width="40" height="40" fill="#9EDBB5" /><rect x="200" y="160" width="40" height="40" fill="#000000" /><rect x="240" y="160" width="40" height="40" fill="#9EDBB5" /><rect x="280" y="160" width="40" height="40" fill="#000000" />
    <rect x="0" y="200" width="40" height="40" fill="#000000" /><rect x="40" y="200" width="40" height="40" fill="#9EDBB5" /><rect x="80" y="200" width="40" height="40" fill="#000000" /><rect x="120" y="200" width="40" height="40" fill="#9EDBB5" /><rect x="160" y="200" width="40" height="40" fill="#000000" /><rect x="200" y="200" width="40" height="40" fill="#9EDBB5" /><rect x="240" y="200" width="40" height="40" fill="#000000" /><rect x="280" y="200" width="40" height="40" fill="#9EDBB5" />
    <rect x="0" y="240" width="40" height="40" fill="#9EDBB5" /><rect x="40" y="240" width="40" height="40" fill="#000000" /><rect x="80" y="240" width="40" height="40" fill="#9EDBB5" /><rect x="120" y="240" width="40" height="40" fill="#000000" /><rect x="160" y="240" width="40" height="40" fill="#9EDBB5" /><rect x="200" y="240" width="40" height="40" fill="#000000" /><rect x="240" y="240" width="40" height="40" fill="#9EDBB5" /><rect x="280" y="240" width="40" height="40" fill="#000000" />
    <rect x="0" y="280" width="40" height="40" fill="#000000" /><rect x="40" y="280" width="40" height="40" fill="#9EDBB5" /><rect x="80" y="280" width="40" height="40" fill="#000000" /><rect x="120" y="280" width="40" height="40" fill="#9EDBB5" /><rect x="160" y="280" width="40" height="40" fill="#000000" /><rect x="200" y="280" width="40" height="40" fill="#9EDBB5" /><rect x="240" y="280" width="40" height="40" fill="#000000" /><rect x="280" y="280" width="40" height="40" fill="#9EDBB5" />
  </g>
</svg>
